<mxfile host="app.diagrams.net" agent="Mozilla/5.0 (Windows NT 10.0; Win64; x64) AppleWebKit/537.36 (KHTML, like Gecko) Chrome/133.0.0.0 Safari/537.36 Edg/133.0.0.0" version="26.1.0">
  <diagram name="Page-1" id="2YBvvXClWsGukQMizWep">
    <mxGraphModel dx="1675" dy="1082" grid="1" gridSize="10" guides="1" tooltips="1" connect="1" arrows="1" fold="1" page="1" pageScale="1" pageWidth="850" pageHeight="1100" math="0" shadow="0">
      <root>
        <mxCell id="0" />
        <mxCell id="1" parent="0" />
        <mxCell id="xwhwAsR6nDUBu8LJs53X-4" value="" style="rounded=0;whiteSpace=wrap;html=1;fillColor=none;" vertex="1" parent="1">
          <mxGeometry x="90" y="250" width="650" height="580" as="geometry" />
        </mxCell>
        <mxCell id="xwhwAsR6nDUBu8LJs53X-25" value="" style="rounded=0;whiteSpace=wrap;html=1;fillColor=none;" vertex="1" parent="1">
          <mxGeometry x="160" y="690" width="490" height="70" as="geometry" />
        </mxCell>
        <mxCell id="aM9ryv3xv72pqoxQDRHE-5" value=":System" style="shape=umlLifeline;perimeter=lifelinePerimeter;whiteSpace=wrap;html=1;container=0;dropTarget=0;collapsible=0;recursiveResize=0;outlineConnect=0;portConstraint=eastwest;newEdgeStyle={&quot;edgeStyle&quot;:&quot;elbowEdgeStyle&quot;,&quot;elbow&quot;:&quot;vertical&quot;,&quot;curved&quot;:0,&quot;rounded&quot;:0};" parent="1" vertex="1">
          <mxGeometry x="500" y="130" width="100" height="700" as="geometry" />
        </mxCell>
        <mxCell id="aM9ryv3xv72pqoxQDRHE-7" value="logIn(UserData)" style="html=1;verticalAlign=bottom;endArrow=block;edgeStyle=elbowEdgeStyle;elbow=vertical;curved=0;rounded=0;" parent="1" target="aM9ryv3xv72pqoxQDRHE-5" edge="1">
          <mxGeometry relative="1" as="geometry">
            <mxPoint x="270" y="200" as="sourcePoint" />
            <Array as="points">
              <mxPoint x="460" y="200" />
            </Array>
            <mxPoint x="545" y="200" as="targetPoint" />
          </mxGeometry>
        </mxCell>
        <mxCell id="aM9ryv3xv72pqoxQDRHE-8" value="Account Details" style="html=1;verticalAlign=bottom;endArrow=open;dashed=1;endSize=8;edgeStyle=elbowEdgeStyle;elbow=vertical;curved=0;rounded=0;" parent="1" edge="1">
          <mxGeometry relative="1" as="geometry">
            <mxPoint x="270" y="230" as="targetPoint" />
            <Array as="points">
              <mxPoint x="475" y="230" />
            </Array>
            <mxPoint x="550" y="230" as="sourcePoint" />
            <mxPoint as="offset" />
          </mxGeometry>
        </mxCell>
        <mxCell id="aM9ryv3xv72pqoxQDRHE-9" value="findMovies(&quot;Christopher Nolan&quot;)" style="html=1;verticalAlign=bottom;endArrow=none;edgeStyle=elbowEdgeStyle;elbow=vertical;curved=0;rounded=0;startArrow=block;startFill=1;" parent="1" edge="1">
          <mxGeometry x="0.0018" relative="1" as="geometry">
            <mxPoint x="549.5" y="290" as="sourcePoint" />
            <Array as="points">
              <mxPoint x="465" y="290" />
            </Array>
            <mxPoint x="270" y="290" as="targetPoint" />
            <mxPoint as="offset" />
          </mxGeometry>
        </mxCell>
        <mxCell id="aM9ryv3xv72pqoxQDRHE-10" value="Schedule of Movies" style="html=1;verticalAlign=bottom;endArrow=none;dashed=1;endSize=8;edgeStyle=elbowEdgeStyle;elbow=vertical;curved=0;rounded=0;startFill=0;startArrow=open;" parent="1" edge="1">
          <mxGeometry relative="1" as="geometry">
            <mxPoint x="550" y="320" as="targetPoint" />
            <Array as="points">
              <mxPoint x="510" y="320" />
            </Array>
            <mxPoint x="270" y="320" as="sourcePoint" />
            <mxPoint as="offset" />
          </mxGeometry>
        </mxCell>
        <mxCell id="xwhwAsR6nDUBu8LJs53X-2" value=":Sophia" style="shape=umlActor;verticalLabelPosition=bottom;verticalAlign=top;html=1;outlineConnect=0;" vertex="1" parent="1">
          <mxGeometry x="260" y="100" width="30" height="60" as="geometry" />
        </mxCell>
        <mxCell id="xwhwAsR6nDUBu8LJs53X-6" value="" style="endArrow=none;html=1;strokeWidth=1;rounded=0;fontSize=12;startSize=8;endSize=8;curved=1;dashed=1;exitX=0.277;exitY=0.997;exitDx=0;exitDy=0;exitPerimeter=0;" edge="1" parent="1" source="xwhwAsR6nDUBu8LJs53X-4">
          <mxGeometry width="50" height="50" relative="1" as="geometry">
            <mxPoint x="270" y="810" as="sourcePoint" />
            <mxPoint x="270" y="180" as="targetPoint" />
          </mxGeometry>
        </mxCell>
        <mxCell id="xwhwAsR6nDUBu8LJs53X-7" value="loop" style="text;html=1;align=center;verticalAlign=middle;resizable=0;points=[];autosize=1;strokeColor=default;fillColor=none;fontSize=16;perimeterSpacing=1;" vertex="1" parent="1">
          <mxGeometry x="90" y="250" width="50" height="30" as="geometry" />
        </mxCell>
        <mxCell id="xwhwAsR6nDUBu8LJs53X-8" value="&lt;div style=&quot;line-height: 100%;&quot;&gt;&lt;font style=&quot;font-size: 11px; line-height: 100%;&quot;&gt;[While user wants to&lt;/font&gt;&lt;div&gt;&lt;font style=&quot;font-size: 11px; line-height: 100%;&quot;&gt;look for movies]&lt;/font&gt;&lt;/div&gt;&lt;/div&gt;" style="text;html=1;align=center;verticalAlign=middle;resizable=0;points=[];autosize=1;strokeColor=none;fillColor=none;fontSize=16;" vertex="1" parent="1">
          <mxGeometry x="100" y="290" width="120" height="50" as="geometry" />
        </mxCell>
        <mxCell id="xwhwAsR6nDUBu8LJs53X-9" value="opt" style="text;html=1;align=center;verticalAlign=middle;resizable=0;points=[];autosize=1;strokeColor=default;fillColor=none;fontSize=16;perimeterSpacing=1;" vertex="1" parent="1">
          <mxGeometry x="150" y="360" width="50" height="30" as="geometry" />
        </mxCell>
        <mxCell id="xwhwAsR6nDUBu8LJs53X-10" value="chooseShowtime(IMAX)" style="html=1;verticalAlign=bottom;endArrow=none;edgeStyle=elbowEdgeStyle;elbow=vertical;curved=0;rounded=0;startArrow=block;startFill=1;" edge="1" parent="1">
          <mxGeometry x="0.0018" relative="1" as="geometry">
            <mxPoint x="549.5" y="400" as="sourcePoint" />
            <Array as="points">
              <mxPoint x="465" y="400" />
            </Array>
            <mxPoint x="270" y="400" as="targetPoint" />
            <mxPoint as="offset" />
          </mxGeometry>
        </mxCell>
        <mxCell id="xwhwAsR6nDUBu8LJs53X-11" value="&lt;font style=&quot;font-size: 11px;&quot;&gt;[User likes schedule]&lt;/font&gt;" style="text;html=1;align=center;verticalAlign=middle;resizable=0;points=[];autosize=1;strokeColor=none;fillColor=none;fontSize=16;" vertex="1" parent="1">
          <mxGeometry x="140" y="400" width="130" height="30" as="geometry" />
        </mxCell>
        <mxCell id="xwhwAsR6nDUBu8LJs53X-12" value="Seat Selection" style="html=1;verticalAlign=bottom;endArrow=none;dashed=1;endSize=8;edgeStyle=elbowEdgeStyle;elbow=vertical;curved=0;rounded=0;startFill=0;startArrow=open;" edge="1" parent="1">
          <mxGeometry relative="1" as="geometry">
            <mxPoint x="550" y="430" as="targetPoint" />
            <Array as="points">
              <mxPoint x="510" y="430" />
            </Array>
            <mxPoint x="270" y="430" as="sourcePoint" />
            <mxPoint as="offset" />
          </mxGeometry>
        </mxCell>
        <mxCell id="xwhwAsR6nDUBu8LJs53X-13" value="selectSeat(position)" style="html=1;verticalAlign=bottom;endArrow=none;edgeStyle=elbowEdgeStyle;elbow=vertical;curved=0;rounded=0;startArrow=block;startFill=1;" edge="1" parent="1">
          <mxGeometry x="0.0018" relative="1" as="geometry">
            <mxPoint x="549.5" y="460" as="sourcePoint" />
            <Array as="points">
              <mxPoint x="465" y="460" />
            </Array>
            <mxPoint x="270" y="460" as="targetPoint" />
            <mxPoint as="offset" />
          </mxGeometry>
        </mxCell>
        <mxCell id="xwhwAsR6nDUBu8LJs53X-14" value="Temporary Seat Reservation" style="html=1;verticalAlign=bottom;endArrow=none;dashed=1;endSize=8;edgeStyle=elbowEdgeStyle;elbow=vertical;curved=0;rounded=0;startFill=0;startArrow=open;" edge="1" parent="1">
          <mxGeometry relative="1" as="geometry">
            <mxPoint x="550" y="490" as="targetPoint" />
            <Array as="points">
              <mxPoint x="510" y="490" />
            </Array>
            <mxPoint x="270" y="490" as="sourcePoint" />
            <mxPoint as="offset" />
          </mxGeometry>
        </mxCell>
        <mxCell id="xwhwAsR6nDUBu8LJs53X-15" value="alt" style="text;html=1;align=center;verticalAlign=middle;resizable=0;points=[];autosize=1;strokeColor=default;fillColor=none;fontSize=16;perimeterSpacing=1;" vertex="1" parent="1">
          <mxGeometry x="160" y="690" width="40" height="30" as="geometry" />
        </mxCell>
        <mxCell id="xwhwAsR6nDUBu8LJs53X-16" value="&lt;font style=&quot;font-size: 11px;&quot;&gt;[User has&amp;nbsp;&lt;/font&gt;&lt;div&gt;&lt;font style=&quot;font-size: 11px;&quot;&gt;enough&amp;nbsp;&lt;/font&gt;&lt;span style=&quot;font-size: 11px; background-color: transparent; color: light-dark(rgb(0, 0, 0), rgb(255, 255, 255));&quot;&gt;money]&lt;/span&gt;&lt;/div&gt;" style="text;html=1;align=center;verticalAlign=middle;resizable=0;points=[];autosize=1;strokeColor=none;fillColor=none;fontSize=16;" vertex="1" parent="1">
          <mxGeometry x="170" y="710" width="100" height="50" as="geometry" />
        </mxCell>
        <mxCell id="xwhwAsR6nDUBu8LJs53X-17" value="viewMealOptions()" style="html=1;verticalAlign=bottom;endArrow=none;edgeStyle=elbowEdgeStyle;elbow=vertical;curved=0;rounded=0;startArrow=block;startFill=1;" edge="1" parent="1">
          <mxGeometry x="0.0018" relative="1" as="geometry">
            <mxPoint x="549.5" y="531" as="sourcePoint" />
            <Array as="points">
              <mxPoint x="465" y="531" />
            </Array>
            <mxPoint x="270" y="531" as="targetPoint" />
            <mxPoint as="offset" />
          </mxGeometry>
        </mxCell>
        <mxCell id="xwhwAsR6nDUBu8LJs53X-18" value="List of Meals w/ info" style="html=1;verticalAlign=bottom;endArrow=none;dashed=1;endSize=8;edgeStyle=elbowEdgeStyle;elbow=vertical;curved=0;rounded=0;startFill=0;startArrow=open;" edge="1" parent="1">
          <mxGeometry relative="1" as="geometry">
            <mxPoint x="550" y="561" as="targetPoint" />
            <Array as="points">
              <mxPoint x="510" y="561" />
            </Array>
            <mxPoint x="270" y="561" as="sourcePoint" />
            <mxPoint as="offset" />
          </mxGeometry>
        </mxCell>
        <mxCell id="xwhwAsR6nDUBu8LJs53X-19" value="addToCart(Meal)" style="html=1;verticalAlign=bottom;endArrow=none;edgeStyle=elbowEdgeStyle;elbow=vertical;curved=0;rounded=0;startArrow=block;startFill=1;" edge="1" parent="1">
          <mxGeometry x="0.0018" relative="1" as="geometry">
            <mxPoint x="549.5" y="610" as="sourcePoint" />
            <Array as="points">
              <mxPoint x="465" y="610" />
            </Array>
            <mxPoint x="270" y="610" as="targetPoint" />
            <mxPoint as="offset" />
          </mxGeometry>
        </mxCell>
        <mxCell id="xwhwAsR6nDUBu8LJs53X-20" value="Review Cart" style="html=1;verticalAlign=bottom;endArrow=none;dashed=1;endSize=8;edgeStyle=elbowEdgeStyle;elbow=vertical;curved=0;rounded=0;startFill=0;startArrow=open;" edge="1" parent="1">
          <mxGeometry relative="1" as="geometry">
            <mxPoint x="550" y="640" as="targetPoint" />
            <Array as="points">
              <mxPoint x="510" y="640" />
            </Array>
            <mxPoint x="270" y="640" as="sourcePoint" />
            <mxPoint as="offset" />
          </mxGeometry>
        </mxCell>
        <mxCell id="xwhwAsR6nDUBu8LJs53X-21" value="purchase(creditCard)" style="html=1;verticalAlign=bottom;endArrow=none;edgeStyle=elbowEdgeStyle;elbow=vertical;curved=0;rounded=0;startArrow=block;startFill=1;" edge="1" parent="1">
          <mxGeometry x="0.0018" relative="1" as="geometry">
            <mxPoint x="549.5" y="680" as="sourcePoint" />
            <Array as="points">
              <mxPoint x="465" y="680" />
            </Array>
            <mxPoint x="270" y="680" as="targetPoint" />
            <mxPoint as="offset" />
          </mxGeometry>
        </mxCell>
        <mxCell id="xwhwAsR6nDUBu8LJs53X-22" value="Generate Ticket" style="html=1;verticalAlign=bottom;endArrow=none;dashed=1;endSize=8;edgeStyle=elbowEdgeStyle;elbow=vertical;curved=0;rounded=0;startFill=0;startArrow=open;" edge="1" parent="1">
          <mxGeometry relative="1" as="geometry">
            <mxPoint x="550" y="730" as="targetPoint" />
            <Array as="points">
              <mxPoint x="510" y="730" />
            </Array>
            <mxPoint x="270" y="730" as="sourcePoint" />
            <mxPoint as="offset" />
          </mxGeometry>
        </mxCell>
        <mxCell id="xwhwAsR6nDUBu8LJs53X-23" value="Reject Payment" style="html=1;verticalAlign=bottom;endArrow=none;dashed=1;endSize=8;edgeStyle=elbowEdgeStyle;elbow=vertical;curved=0;rounded=0;startFill=0;startArrow=open;" edge="1" parent="1">
          <mxGeometry relative="1" as="geometry">
            <mxPoint x="550" y="790" as="targetPoint" />
            <Array as="points">
              <mxPoint x="510" y="790" />
            </Array>
            <mxPoint x="270" y="790" as="sourcePoint" />
            <mxPoint as="offset" />
          </mxGeometry>
        </mxCell>
        <mxCell id="xwhwAsR6nDUBu8LJs53X-24" value="" style="rounded=0;whiteSpace=wrap;html=1;fillColor=none;" vertex="1" parent="1">
          <mxGeometry x="150" y="360" width="490" height="150" as="geometry" />
        </mxCell>
        <mxCell id="xwhwAsR6nDUBu8LJs53X-27" value="" style="rounded=0;whiteSpace=wrap;html=1;fillColor=none;" vertex="1" parent="1">
          <mxGeometry x="160" y="760" width="490" height="60" as="geometry" />
        </mxCell>
        <mxCell id="xwhwAsR6nDUBu8LJs53X-28" value="&lt;span style=&quot;font-size: 11px;&quot;&gt;[else]&lt;/span&gt;" style="text;html=1;align=center;verticalAlign=middle;resizable=0;points=[];autosize=1;strokeColor=none;fillColor=none;fontSize=16;" vertex="1" parent="1">
          <mxGeometry x="195" y="770" width="50" height="30" as="geometry" />
        </mxCell>
      </root>
    </mxGraphModel>
  </diagram>
</mxfile>
